<svg width="35" height="35" viewBox="0 0 35 35" fill="none" xmlns="http://www.w3.org/2000/svg">
<g clip-path="url(#clip0_440_434)">
<path d="M18.2017 22.6067C17.774 23.0338 17.774 23.7262 18.2016 24.1533C18.4154 24.3671 18.6949 24.4737 18.9749 24.4737C19.2549 24.4737 19.5344 24.3671 19.7482 24.1533L26.2084 17.5224L19.7482 10.891C19.3211 10.4639 18.6287 10.4639 18.2016 10.891C17.774 11.3181 17.774 12.0105 18.2016 12.4376L22.1577 16.3942H1.08826C0.48396 16.3942 -0.00549316 16.8842 -0.00549316 17.488C-0.00549316 18.0917 0.48396 18.5817 1.08826 18.5817H22.2266L18.2017 22.6067ZM32.8179 0H13.1304C11.9219 0 10.9424 0.979453 10.9424 2.1875V12.0312H13.1446V3.52133C13.1446 2.7907 13.7374 2.19789 14.4681 2.19789H31.4453C32.177 2.19789 32.7687 2.7907 32.7687 3.52133L32.8031 31.4902C32.8031 32.2208 32.2114 32.8136 31.4797 32.8136H14.4686C13.738 32.8136 13.1452 32.2208 13.1452 31.4902V22.9327L10.9429 22.9354V32.8125C10.9429 34.0205 11.9224 35 13.131 35H32.8185C34.0265 35 35.006 34.0205 35.006 32.8125V2.1875C35.0054 0.979453 34.026 0 32.8179 0Z" fill="#292D32"/>
</g>
<defs>
<clipPath id="clip0_440_434">
<rect width="35" height="35" fill="white"/>
</clipPath>
</defs>
</svg>
